<?xml version="1.0" encoding="UTF-8"?>
<svg width="281px" height="280px" viewBox="0 0 281 280" version="1.1" xmlns="http://www.w3.org/2000/svg" xmlns:xlink="http://www.w3.org/1999/xlink">
    <title>图形蓝色</title>
    <g id="icon" stroke="none" stroke-width="1" fill="none" fill-rule="evenodd">
        <g id="编组-26" transform="translate(-864.000000, -960.000000)" fill="#2250D0">
            <path d="M1051.40411,1200.88228 C1031.10384,1210.41309 1008.20421,1213.5145 986.095125,1209.75033 C954.535866,1204.37725 927.601739,1186.42136 910.685704,1159.86717 C902.336158,1146.76073 899.129688,1130.79426 902.881929,1115.71374 C906.945957,1099.38379 918.011859,1085.98488 933.619409,1078.84671 C942.575492,1074.75031 952.56973,1073.15616 962.350999,1074.30335 C979.747494,1076.34275 994.601984,1085.98999 1003.41722,1100.66275 C1011.31414,1113.80553 1023.85776,1123.0893 1038.73724,1126.79952 C1057.4161,1131.45532 1076.96671,1126.63084 1091.76725,1113.16662 C1096.12489,1109.20255 1099.82034,1104.5246 1102.6622,1099.36448 C1107.98077,1089.70702 1110.42679,1079.16247 1110.00369,1068.73377 C1109.97587,1068.04829 1110.93338,1067.88928 1111.12761,1068.54693 C1116.90902,1088.15717 1117.19412,1109.21106 1111.78185,1129.16831 C1103.22047,1160.73892 1081.50268,1186.75189 1051.40411,1200.88228 M1002.38475,960 L920.811132,960 L881.645733,960 L867.242739,960 C865.727531,960 864.499123,961.228409 864.499123,962.743617 L864.499123,1016.31201 L864.499123,1016.31201 L864.499123,1097.88449 C864.499123,1175.27765 926.403998,1239.61492 1003.79659,1239.99829 C1081.54925,1240.37934 1144.88301,1177.04501 1144.49914,1099.29293 C1144.11404,1021.90204 1079.77677,960 1002.38475,960" id="图形蓝色"></path>
        </g>
    </g>
</svg>